<?xml version="1.0"?>
<svg xmlns="http://www.w3.org/2000/svg" viewBox="0 0 64 64" width="512" height="512"><g id="Glyph"><path d="M19,18.586l5.707,5.707a1,1,0,0,1,.246.406,19.927,19.927,0,0,1,.8,6.084,12.048,12.048,0,0,0,12.491,0,19.892,19.892,0,0,1,.8-6.084,1,1,0,0,1,.246-.406L45,18.586V17.254L32.114,18.991A1,1,0,0,1,31.98,19a.992.992,0,0,1-.143-.01L19,17.126ZM31,21h2v5H31Z"/><path d="M32,34.54a14.08,14.08,0,0,1-6.341-1.53c-.1,1.338-.286,2.677-.519,3.99H38.861c-.233-1.314-.416-2.653-.52-3.99A14.08,14.08,0,0,1,32,34.54Z"/><path d="M13.135,60a2.3,2.3,0,0,0,.814-.163,67.623,67.623,0,0,1-.94-22.967c.465-3.554,1-7.148,1.72-10.474l-1.872,3.119A31.776,31.776,0,0,0,9,47.91C10.064,59.661,12.823,60,13.135,60Z"/><path d="M23.725,43H40.277c-.363-1.249-.714-2.593-1.022-4H24.746C24.438,40.408,24.088,41.753,23.725,43Z"/><path d="M40,8a1,1,0,0,0,0,2h2a1,1,0,0,0,0-2Z"/><path d="M31.985,16.99l12.437-1.677c-.461-.644-1.282-1.684-2.715-3.313H40a3,3,0,0,1-3-3,2.973,2.973,0,0,1,.478-1.611c-1.153-1.21-1.984-2.059-2.16-2.227a5.373,5.373,0,0,0-6.665-.012c-.19.191-1.034,1.049-2.143,2.217A2.969,2.969,0,0,1,27,9a3,3,0,0,1-3,3H22.233c-1.37,1.552-2.172,2.559-2.632,3.192Z"/><path d="M22,8a1,1,0,0,0,0,2h2a1,1,0,0,0,0-2Z"/><path d="M41.216,51H22.784a30.857,30.857,0,0,0,2.321,4H38.9A30.857,30.857,0,0,0,41.216,51Z"/><path d="M44.736,49.455A65.582,65.582,0,0,0,45,41.005a40.956,40.956,0,0,0-3.344-16.247l-.772.773C38.768,32.7,42.3,43.358,43.935,47.644Z"/><path d="M48.419,57.78a65.6,65.6,0,0,0,.59-20.65c-.768-5.861-1.718-11.832-3.383-16.341l-2.44,2.439A43.827,43.827,0,0,1,47,41c.028,5.227.042,8.248-.858,11.638Z"/><path d="M14.991,37.13a65.6,65.6,0,0,0,.59,20.651l2.277-5.149c-.9-3.389-.886-6.41-.858-11.637a43.827,43.827,0,0,1,3.814-17.767l-2.44-2.439C16.709,25.3,15.759,31.269,14.991,37.13Z"/><path d="M32,60c1.878,0,3.693-1.189,5.328-3H26.672C28.307,58.811,30.122,60,32,60Z"/><path d="M22.344,24.758A40.956,40.956,0,0,0,19,41.005a65.572,65.572,0,0,0,.264,8.449l.822-1.858c1.612-4.238,5.146-14.9,3.03-22.065Z"/><path d="M51.135,29.5,49.271,26.4c.719,3.327,1.255,6.921,1.72,10.475a67.593,67.593,0,0,1-.94,22.966,2.281,2.281,0,0,0,.814.164c.312,0,3.071-.339,4.139-12.09A31.787,31.787,0,0,0,51.135,29.5Z"/><path d="M42.234,48.738l-.148-.334c-.342-.9-.762-2.062-1.2-3.4H23.113c-.429,1.325-.842,2.473-1.178,3.356l-.169.381c.036.088.073.175.11.263H42.124C42.161,48.913,42.2,48.825,42.234,48.738Z"/></g></svg>
